<svg width="18" height="21" viewBox="0 0 18 21" fill="none" xmlns="http://www.w3.org/2000/svg">
<g clip-path="url(#clip0_2_2657)">
<path d="M5.25 0.5C5.94141 0.5 6.5 1.05859 6.5 1.75V3H11.5V1.75C11.5 1.05859 12.0586 0.5 12.75 0.5C13.4414 0.5 14 1.05859 14 1.75V3H15.875C16.9102 3 17.75 3.83984 17.75 4.875V6.75H0.25V4.875C0.25 3.83984 1.08984 3 2.125 3H4V1.75C4 1.05859 4.55859 0.5 5.25 0.5ZM0.25 8H17.75V18.625C17.75 19.6602 16.9102 20.5 15.875 20.5H2.125C1.08984 20.5 0.25 19.6602 0.25 18.625V8ZM3.375 10.5C3.03125 10.5 2.75 10.7812 2.75 11.125V14.875C2.75 15.2188 3.03125 15.5 3.375 15.5H7.125C7.46875 15.5 7.75 15.2188 7.75 14.875V11.125C7.75 10.7812 7.46875 10.5 7.125 10.5H3.375Z" fill="#60A5FA"/>
</g>
<defs>
<clipPath id="clip0_2_2657">
<path d="M0.25 0.5H17.75V20.5H0.25V0.5Z" fill="white"/>
</clipPath>
</defs>
</svg>
