<svg width="24" height="21" viewBox="0 0 24 21" fill="none" xmlns="http://www.w3.org/2000/svg">
<g clip-path="url(#clip0_2_2666)">
<path d="M13.1292 1.20312C12.9221 0.773438 12.4846 0.5 12.0042 0.5C11.5237 0.5 11.0901 0.773438 10.8792 1.20312L8.36744 6.37109L2.75806 7.19922C2.28931 7.26953 1.89869 7.59766 1.75416 8.04688C1.60963 8.49609 1.72681 8.99219 2.06275 9.32422L6.13306 13.3516L5.17213 19.043C5.094 19.5117 5.28931 19.9883 5.67603 20.2656C6.06275 20.543 6.57447 20.5781 6.99635 20.3555L12.0081 17.6797L17.0198 20.3555C17.4417 20.5781 17.9534 20.5469 18.3401 20.2656C18.7268 19.9844 18.9221 19.5117 18.844 19.043L17.8792 13.3516L21.9495 9.32422C22.2854 8.99219 22.4065 8.49609 22.2581 8.04688C22.1096 7.59766 21.7229 7.26953 21.2542 7.19922L15.6409 6.37109L13.1292 1.20312Z" fill="#FFD700"/>
</g>
<defs>
<clipPath id="clip0_2_2666">
<path d="M0.75 0.5H23.25V20.5H0.75V0.5Z" fill="white"/>
</clipPath>
</defs>
</svg>
